<svg width="164" height="32" viewBox="0 0 164 32" fill="none" xmlns="http://www.w3.org/2000/svg">
<g clip-path="url(#clip0_1595_5231)">
<path d="M56.252 12.6573V2.86121L61.4454 8.02358L66.6078 2.86121V12.6573H64.2132V8.39677L61.4454 11.2267L58.6466 8.39677V12.6573H56.252Z" fill="#FFFBF3"/>
<path d="M69.4062 12.657V3.32739H76.3724V5.65979H71.9874V6.96594H76.0925V9.08065H71.9874V10.2935H76.4967V12.5637L69.4062 12.657Z" fill="#FFFBF3"/>
<path d="M80.8821 12.6571V5.53553H78.332V3.20312H85.9512V5.53553H83.4633V12.6571H80.8821Z" fill="#FFFBF3"/>
<path d="M86.0137 12.6573L91.2382 2.5813L96.4939 12.6573H93.8194L93.1975 11.4444H89.3101L88.6882 12.6573H86.0137ZM90.1809 9.5474H92.3267L91.2382 7.1839L90.1809 9.5474Z" fill="#FFFBF3"/>
<path d="M100.785 13.1858L95.5605 3.20312H98.3283L100.785 8.02342L103.242 3.20312H106.01L100.785 13.1858Z" fill="#FFFBF3"/>
<path d="M108.062 12.657V3.32739H115.029V5.65979H110.613V6.96594H114.718V9.08065H110.613V10.2935H115.122V12.5637L108.062 12.657Z" fill="#FFFBF3"/>
<path d="M117.672 12.6571V3.32753H121.995C122.438 3.31886 122.879 3.39977 123.29 3.56542C123.702 3.73107 124.075 3.97806 124.389 4.29159C124.706 4.58511 124.958 4.94131 125.129 5.33751C125.3 5.73371 125.387 6.16124 125.384 6.59289C125.38 7.14705 125.228 7.69007 124.944 8.16575C124.66 8.64143 124.253 9.03249 123.767 9.29848L126.131 12.7815H123.176L121.248 9.85826H120.253V12.7815L117.672 12.6571ZM120.253 7.65025H121.559C121.708 7.66981 121.86 7.65541 122.002 7.6081C122.145 7.56079 122.275 7.48181 122.383 7.37709C122.49 7.27237 122.573 7.14462 122.624 7.00342C122.675 6.86222 122.694 6.71124 122.679 6.56179C122.692 6.43425 122.678 6.30542 122.639 6.18334C122.6 6.06126 122.536 5.94856 122.451 5.85227C122.367 5.75597 122.263 5.67815 122.147 5.62365C122.031 5.56916 121.905 5.53916 121.777 5.53554H120.129L120.253 7.65025Z" fill="#FFFBF3"/>
<path d="M127.779 9.45378C128.733 10.1797 129.909 10.5533 131.107 10.5111C132.133 10.5111 132.631 10.2623 132.631 9.79587C132.631 9.32939 132.631 9.48488 132.289 9.36049C131.909 9.18642 131.513 9.05097 131.107 8.9562L129.894 8.55192C129.305 8.40542 128.782 8.06509 128.41 7.58565C128.038 7.10621 127.838 6.51552 127.841 5.90853C127.822 5.49938 127.909 5.0922 128.095 4.72693C128.28 4.36165 128.557 4.05083 128.899 3.82492C129.659 3.31022 130.562 3.04899 131.48 3.07855C132.459 3.06019 133.429 3.2733 134.31 3.70052V6.12622C133.513 5.58983 132.563 5.3278 131.604 5.37985C130.734 5.37985 130.298 5.37985 130.298 5.87743C130.298 6.37501 130.454 6.31282 130.889 6.49941L131.418 6.7171L132.133 6.90369L132.755 7.09028C133.459 7.25656 134.104 7.61134 134.621 8.11653C134.984 8.59946 135.171 9.19213 135.15 9.79587C135.15 11.6618 133.844 12.9057 131.2 12.9057C130.012 12.9469 128.833 12.679 127.779 12.1283V9.45378Z" fill="#FFFBF3"/>
<path d="M137.482 12.657V3.32739H140.219V12.657H137.482Z" fill="#FFFBF3"/>
<path d="M142.115 12.6573L147.34 2.5813L152.658 12.6573H149.952L149.361 11.4444H145.412L144.79 12.6573H142.115ZM146.282 9.5474H148.428L147.34 7.1839L146.282 9.5474Z" fill="#FFFBF3"/>
<path d="M154.586 12.6574V2.8302L160.806 7.96148V3.20338H163.294V13.0617L157.074 7.89928V12.6574H154.586Z" fill="#FFFBF3"/>
<path d="M56.252 28.9528V19.6232H60.5747C61.4675 19.6228 62.3258 19.9683 62.9693 20.5872C63.5707 21.1435 63.9283 21.9146 63.9644 22.733C63.9816 23.2914 63.8383 23.843 63.5518 24.3225C63.2652 24.802 62.8472 25.1893 62.3473 25.4386L64.7108 28.9528H61.6009L59.6728 25.9984H58.8331V28.9528H56.252ZM58.8331 23.9459H60.2637C60.4233 23.9633 60.5847 23.9431 60.7351 23.8868C60.8854 23.8305 61.0204 23.7398 61.1293 23.6218C61.2382 23.5038 61.3179 23.362 61.362 23.2076C61.4061 23.0533 61.4134 22.8907 61.3832 22.733C61.3963 22.607 61.3827 22.4796 61.3433 22.3592C61.3039 22.2388 61.2396 22.128 61.1545 22.0341C61.0694 21.9402 60.9655 21.8653 60.8495 21.8143C60.7335 21.7632 60.6081 21.7372 60.4814 21.7379H58.8331V23.9459Z" fill="#FFFBF3"/>
<path d="M66.7324 28.9528V19.6232H73.6985V21.9556H69.3136V23.2617H73.2942V25.3764H69.3136V26.807H73.7918V28.9528H66.7324Z" fill="#FFFBF3"/>
<path d="M76.4043 28.9528V19.6232H80.8514C81.6491 19.6588 82.4134 19.9536 83.0283 20.4628C83.3954 20.7775 83.6887 21.1691 83.8876 21.6098C84.0864 22.0505 84.1859 22.5295 84.179 23.0129C84.1874 23.4649 84.0971 23.9133 83.9145 24.3269C83.7319 24.7405 83.4613 25.1092 83.1216 25.4075C82.8263 25.7089 82.4727 25.947 82.0824 26.1074C81.6922 26.2678 81.2733 26.3471 80.8514 26.3405H78.9855V28.9528H76.4043ZM78.9855 23.8526H80.7581C80.9109 23.8935 81.0718 23.8935 81.2246 23.8526C81.4734 23.8526 81.6289 23.4172 81.6289 22.9818C81.6289 22.5464 81.4734 22.1733 81.2246 22.0489C81.0605 22.0145 80.8911 22.0145 80.727 22.0489H78.9855V23.8526Z" fill="#FFFBF3"/>
<path d="M86.3249 19.6232H88.8439V24.7544C88.8439 26.3094 89.4658 26.9003 90.5232 26.9003C91.5806 26.9003 92.2025 26.3094 92.2025 24.7544V19.6232H94.7837V24.9099C94.8146 25.4848 94.7224 26.0596 94.5132 26.5959C94.3041 27.1322 93.9828 27.6177 93.5709 28.0198C92.6932 28.7373 91.5946 29.1292 90.461 29.1292C89.3274 29.1292 88.2288 28.7373 87.3511 28.0198C86.9496 27.6115 86.6372 27.1243 86.4338 26.5889C86.2304 26.0536 86.1403 25.4819 86.1694 24.9099L86.3249 19.6232Z" fill="#FFFBF3"/>
<path d="M97.4883 28.953V19.6234H101.873C102.545 19.6148 103.193 19.8719 103.677 20.3386C103.919 20.552 104.111 20.8156 104.24 21.1111C104.369 21.4066 104.431 21.7268 104.423 22.0491C104.441 22.4516 104.334 22.8497 104.117 23.1892C103.9 23.5287 103.583 23.793 103.21 23.9461C103.759 24.0435 104.254 24.3368 104.603 24.7715C104.952 25.2062 105.131 25.7527 105.107 26.3096C105.118 26.682 105.048 27.0523 104.903 27.3956C104.758 27.7389 104.542 28.0472 104.268 28.2999C103.998 28.5667 103.677 28.7759 103.325 28.9149C102.972 29.0539 102.594 29.1198 102.215 29.1085L97.4883 28.953ZM100.069 23.2619H101.282C101.391 23.2581 101.498 23.2322 101.597 23.1859C101.696 23.1395 101.784 23.0737 101.857 22.9924C101.929 22.911 101.985 22.8158 102.02 22.7125C102.055 22.6092 102.068 22.4999 102.06 22.3912C102.064 22.2865 102.047 22.182 102.01 22.0841C101.973 21.9861 101.916 21.8967 101.843 21.8212C101.771 21.7457 101.684 21.6856 101.587 21.6446C101.491 21.6036 101.387 21.5825 101.282 21.5826H100.038L100.069 23.2619ZM100.069 26.8383H101.656C101.781 26.8424 101.905 26.8214 102.022 26.7764C102.139 26.7314 102.245 26.6633 102.335 26.5763C102.425 26.4892 102.497 26.3849 102.546 26.2697C102.595 26.1544 102.62 26.0305 102.62 25.9053C102.616 25.7841 102.587 25.6649 102.536 25.5549C102.485 25.4449 102.413 25.3462 102.323 25.265C102.233 25.1837 102.127 25.1214 102.013 25.0818C101.898 25.0422 101.776 25.0261 101.656 25.0345H100.069V26.8383Z" fill="#FFFBF3"/>
<path d="M107.502 28.9528V19.6232H110.083V26.7759H113.722V28.9528H107.502Z" fill="#FFFBF3"/>
<path d="M115.961 28.9528V19.6232H118.542V28.9528H115.961Z" fill="#FFFBF3"/>
<path d="M129.054 20.3382V22.9816C128.689 22.5742 128.244 22.2475 127.746 22.0226C127.248 21.7976 126.708 21.6794 126.162 21.6754C125.821 21.6694 125.483 21.7324 125.168 21.8607C124.852 21.989 124.566 22.1798 124.327 22.4218C124.082 22.6591 123.889 22.9447 123.761 23.2606C123.632 23.5765 123.571 23.9157 123.58 24.2566C123.574 24.597 123.637 24.9351 123.766 25.2504C123.894 25.5658 124.085 25.8519 124.327 26.0914C124.822 26.5601 125.48 26.8168 126.162 26.8067C126.708 26.8027 127.248 26.6844 127.746 26.4595C128.244 26.2346 128.689 25.9079 129.054 25.5005V28.1439C128.228 28.7867 127.208 29.127 126.162 29.108C124.809 29.1353 123.497 28.646 122.492 27.7397C122.022 27.2896 121.647 26.749 121.392 26.1504C121.136 25.5518 121.004 24.9076 121.004 24.2566C121.004 23.6056 121.136 22.9614 121.392 22.3628C121.647 21.7642 122.022 21.2236 122.492 20.7735C123.485 19.8447 124.802 19.3423 126.162 19.3741C127.205 19.3696 128.222 19.7083 129.054 20.3382Z" fill="#FFFBF3"/>
<path fill-rule="evenodd" clip-rule="evenodd" d="M18.8903 3.22345C19.7926 4.12579 20.5257 5.17253 21.0634 6.31348C21.6031 5.17949 22.3354 4.13926 23.2348 3.24197C24.8437 1.63679 26.9088 0.5673 29.1482 0.179495C31.3876 -0.20831 33.6921 0.104473 35.7471 1.07515L26.5854 10.2154C28.5368 9.368 30.6954 9.10309 32.7995 9.45797C35.0499 9.83752 37.1266 10.9072 38.7421 12.5191C40.3577 14.1309 41.4323 16.2051 41.8171 18.4545C42.2019 20.704 41.8779 23.0174 40.8899 25.0746L26.2908 10.5094L21.0388 15.7492L21.0378 15.747L15.7421 10.4514L1.08473 25.0746C0.0967864 23.0174 -0.227213 20.704 0.157587 18.4545C0.542386 16.2051 1.61695 14.1309 3.23253 12.5191C4.84812 10.9072 6.92481 9.83752 9.17515 9.45797C11.3555 9.09022 13.5944 9.38802 15.6006 10.3099L6.36523 1.07449C8.41892 0.0936662 10.7262 -0.226351 12.9693 0.158505C15.2124 0.54336 17.281 1.61416 18.8903 3.22345ZM26.9012 32H15.21L21.0384 15.7489L26.9012 32Z" fill="url(#paint0_linear_1595_5231)"/>
</g>
<defs>
<linearGradient id="paint0_linear_1595_5231" x1="2.50189e-06" y1="32" x2="30.8572" y2="-8.47558" gradientUnits="userSpaceOnUse">
<stop stop-color="#F34078"/>
<stop offset="1" stop-color="#FB884D"/>
</linearGradient>
<clipPath id="clip0_1595_5231">
<rect width="164" height="32" fill="white"/>
</clipPath>
</defs>
</svg>
