<svg width="12" height="12" viewBox="0 0 12 12" fill="none" xmlns="http://www.w3.org/2000/svg">
<path d="M2.46991 6.96943C2.17702 7.26232 2.17702 7.73719 2.46991 8.03009C2.76281 8.32298 3.23768 8.32298 3.53057 8.03009L2.46991 6.96943ZM6.00012 4.49988L6.53047 3.96957C6.38982 3.82891 6.19906 3.74988 6.00014 3.74988C5.80122 3.74987 5.61045 3.82889 5.46979 3.96955L6.00012 4.49988ZM8.46965 8.03031C8.76253 8.32321 9.2374 8.32323 9.53031 8.03035C9.82321 7.73747 9.82323 7.2626 9.53035 6.96969L8.46965 8.03031ZM3.53057 8.03009L6.53045 5.03021L5.46979 3.96955L2.46991 6.96943L3.53057 8.03009ZM5.46977 5.03019L8.46965 8.03031L9.53035 6.96969L6.53047 3.96957L5.46977 5.03019Z" fill="white"/>
</svg>
