<svg width="18" height="21" viewBox="0 0 18 21" fill="none" xmlns="http://www.w3.org/2000/svg">
<path d="M7.09097 8.57227C6.5086 8.57227 6.04883 9.08312 6.04883 9.70636C6.04883 10.3296 6.51881 10.8405 7.09097 10.8405C7.67334 10.8405 8.13311 10.3296 8.13311 9.70636C8.14333 9.08312 7.67334 8.57227 7.09097 8.57227ZM10.8202 8.57227C10.2378 8.57227 9.77806 9.08312 9.77806 9.70636C9.77806 10.3296 10.248 10.8405 10.8202 10.8405C11.4026 10.8405 11.8623 10.3296 11.8623 9.70636C11.8623 9.08312 11.4026 8.57227 10.8202 8.57227Z" fill="#FFFBF3"/>
<path d="M15.7854 0H2.0945C0.939971 0 0 0.939971 0 2.10472V15.9182C0 17.083 0.939971 18.0229 2.0945 18.0229H13.6807L13.1392 16.1328L14.4469 17.3486L15.6832 18.4929L17.8799 20.4342V2.10472C17.8799 0.939971 16.9399 0 15.7854 0ZM11.8416 13.3435C11.8416 13.3435 11.4738 12.9042 11.1673 12.5159C12.5057 12.1379 13.0166 11.3001 13.0166 11.3001C12.5977 11.5759 12.1992 11.7701 11.8416 11.9029C11.3307 12.1175 10.8403 12.2605 10.3601 12.3422C9.37928 12.5261 8.48017 12.475 7.71389 12.332C7.13152 12.2196 6.63088 12.0561 6.21198 11.8927C5.97699 11.8007 5.72156 11.6883 5.46614 11.5453C5.43548 11.5249 5.40483 11.5146 5.37418 11.4942C5.35375 11.484 5.34353 11.4738 5.33331 11.4636C5.14941 11.3614 5.04724 11.2899 5.04724 11.2899C5.04724 11.2899 5.53766 12.1072 6.83522 12.4955C6.52871 12.8837 6.15068 13.3435 6.15068 13.3435C3.89271 13.272 3.03447 11.7905 3.03447 11.7905C3.03447 8.50061 4.50573 5.83395 4.50573 5.83395C5.97699 4.73051 7.37673 4.76116 7.37673 4.76116L7.4789 4.88376C5.63983 5.41505 4.79181 6.2222 4.79181 6.2222C4.79181 6.2222 5.01658 6.09959 5.39462 5.9259C6.48784 5.4457 7.35629 5.31288 7.71389 5.28223C7.77519 5.27201 7.82628 5.26179 7.88758 5.26179C8.51082 5.18006 9.2158 5.15962 9.95143 5.24136C10.9221 5.35375 11.9642 5.63983 13.0268 6.2222C13.0268 6.2222 12.2196 5.45592 10.4827 4.92463L10.6258 4.76116C10.6258 4.76116 12.0255 4.73051 13.4968 5.83395C13.4968 5.83395 14.968 8.50061 14.968 11.7905C14.968 11.7905 14.0996 13.272 11.8416 13.3435Z" fill="#FFFBF3"/>
</svg>
