<svg width="44" height="44" viewBox="0 0 44 44" fill="none" xmlns="http://www.w3.org/2000/svg">
<path fill-rule="evenodd" clip-rule="evenodd" d="M14 18.25C13.5858 18.25 13.25 18.5858 13.25 19C13.25 19.4142 13.5858 19.75 14 19.75L30 19.75C30.4142 19.75 30.75 19.4142 30.75 19C30.75 18.5858 30.4142 18.25 30 18.25H14ZM17 24.25C16.5858 24.25 16.25 24.5858 16.25 25C16.25 25.4142 16.5858 25.75 17 25.75L27 25.75C27.4142 25.75 27.75 25.4142 27.75 25C27.75 24.5858 27.4142 24.25 27 24.25L17 24.25Z" fill="white"/>
<rect x="0.5" y="0.5" width="43" height="43" rx="21.5" stroke="white" stroke-opacity="0.1"/>
</svg>
