<svg width="44" height="44" viewBox="0 0 44 44" fill="none" xmlns="http://www.w3.org/2000/svg">
<path fill-rule="evenodd" clip-rule="evenodd" d="M14.4697 28.4696C14.1768 28.7625 14.1768 29.2374 14.4697 29.5303C14.7626 29.8232 15.2374 29.8232 15.5303 29.5303L22 23.0606L28.4698 29.5304C28.7627 29.8233 29.2376 29.8233 29.5305 29.5304C29.8234 29.2376 29.8234 28.7627 29.5305 28.4698L23.0607 21.9999L29.5305 15.5301C29.8234 15.2372 29.8234 14.7623 29.5305 14.4694C29.2376 14.1765 28.7627 14.1765 28.4698 14.4694L22 20.9393L15.5303 14.4696C15.2374 14.1767 14.7626 14.1767 14.4697 14.4696C14.1768 14.7625 14.1768 15.2374 14.4697 15.5303L20.9393 21.9999L14.4697 28.4696Z" fill="black"/>
<rect x="0.5" y="0.5" width="43" height="43" rx="21.5" stroke="black" stroke-opacity="0.1"/>
</svg>
