<svg width="21" height="20" viewBox="0 0 21 20" fill="none" xmlns="http://www.w3.org/2000/svg">
<path d="M10.5003 1.66663C8.85215 1.66663 7.24099 2.15537 5.87058 3.07105C4.50017 3.98672 3.43206 5.28821 2.80133 6.81093C2.1706 8.33365 2.00558 10.0092 2.32712 11.6257C2.64866 13.2422 3.44234 14.7271 4.60777 15.8925C5.77321 17.058 7.25807 17.8516 8.87458 18.1732C10.4911 18.4947 12.1666 18.3297 13.6894 17.699C15.2121 17.0682 16.5136 16.0001 17.4292 14.6297C18.3449 13.2593 18.8337 11.6481 18.8337 9.99996C18.8337 8.90561 18.6181 7.82198 18.1993 6.81093C17.7805 5.79988 17.1667 4.88122 16.3929 4.1074C15.6191 3.33358 14.7004 2.71975 13.6894 2.30096C12.6783 1.88217 11.5947 1.66663 10.5003 1.66663ZM11.3337 13.3333C11.3337 13.5543 11.2459 13.7663 11.0896 13.9225C10.9333 14.0788 10.7213 14.1666 10.5003 14.1666C10.2793 14.1666 10.0674 14.0788 9.91107 13.9225C9.75479 13.7663 9.667 13.5543 9.667 13.3333V9.16663C9.667 8.94561 9.75479 8.73365 9.91107 8.57737C10.0674 8.42109 10.2793 8.33329 10.5003 8.33329C10.7213 8.33329 10.9333 8.42109 11.0896 8.57737C11.2459 8.73365 11.3337 8.94561 11.3337 9.16663V13.3333ZM10.5003 7.49996C10.3355 7.49996 10.1744 7.45109 10.0374 7.35952C9.90031 7.26795 9.7935 7.1378 9.73043 6.98553C9.66736 6.83326 9.65085 6.6657 9.68301 6.50405C9.71516 6.3424 9.79453 6.19391 9.91107 6.07737C10.0276 5.96083 10.1761 5.88146 10.3378 5.84931C10.4994 5.81715 10.667 5.83365 10.8192 5.89673C10.9715 5.9598 11.1017 6.06661 11.1932 6.20365C11.2848 6.34069 11.3337 6.50181 11.3337 6.66663C11.3337 6.88764 11.2459 7.0996 11.0896 7.25588C10.9333 7.41216 10.7213 7.49996 10.5003 7.49996Z" fill="white"/>
</svg>
