<svg width="24" height="24" viewBox="0 0 24 24" fill="none" xmlns="http://www.w3.org/2000/svg">
<path d="M13 12.0001C13 15.3138 10.3137 18 7.0001 18C3.68653 18 1 15.3132 1 12.0001C1 8.68705 3.68633 6 7.0001 6C10.3139 6 13 8.68644 13 12.0001Z" fill="#FFFBF3"/>
<path d="M20 12C20 15.3131 18.6569 18 17 18C15.3431 18 14 15.3131 14 12C14 8.68688 15.3429 6 16.9998 6C18.6567 6 19.9998 8.68602 19.9998 12" fill="#FFFBF3"/>
<path d="M23 12C23 14.7607 22.5523 17 21.9999 17C21.4475 17 21 14.7613 21 12C21 9.23874 21.4477 7 21.9999 7C22.5521 7 23 9.23854 23 12Z" fill="#FFFBF3"/>
</svg>
