<svg width="20" height="20" viewBox="0 0 20 20" fill="none" xmlns="http://www.w3.org/2000/svg">
<path d="M11.002 2C11.002 1.44772 10.5542 1 10.002 1C9.44967 1 9.00195 1.44772 9.00195 2H11.002ZM9.00195 18C9.00195 18.5523 9.44967 19 10.002 19C10.5542 19 11.002 18.5523 11.002 18H9.00195ZM9.00195 2V18H11.002V2H9.00195Z" fill="#FFFBF3"/>
<path d="M18 11C18.5523 11 19 10.5523 19 10C19 9.44772 18.5523 9 18 9L18 11ZM2 9C1.44771 9 0.999996 9.44771 0.999996 10C0.999996 10.5523 1.44771 11 2 11L2 9ZM18 9L2 9L2 11L18 11L18 9Z" fill="#FFFBF3"/>
</svg>
