<svg width="42" height="42" viewBox="0 0 42 42" fill="none" xmlns="http://www.w3.org/2000/svg">
<rect width="42" height="42" rx="21" fill="url(#paint0_linear_2302_7573)" fill-opacity="0.2"/>
<path fill-rule="evenodd" clip-rule="evenodd" d="M11 11H15V15H11V11ZM11 19H15V23H11V19ZM15 23.0001H11V27H15V23.0001ZM19 27.0001H23V31.0001H19V27.0001ZM23 14.9999H19V18.9998H23V14.9999ZM23 15H27V19H23V15ZM23 27.0001V30.9995H27V27.0001V26.9995V23.0001H23V26.9995V27.0001ZM15 15H19V19H15V15ZM19 30.9995V27.0001V26.9995V23.0001H15V26.9995V27.0001V30.9995H19ZM19 19H23V23H19V19ZM27 11H31V15H27V11ZM31 19H27V23H31V19ZM31 23.0001H27V27.0001H31V23.0001Z" fill="url(#paint1_linear_2302_7573)"/>
<defs>
<linearGradient id="paint0_linear_2302_7573" x1="2.50339e-06" y1="42" x2="42" y2="2.50339e-06" gradientUnits="userSpaceOnUse">
<stop stop-color="#F34078"/>
<stop offset="1" stop-color="#FB884D"/>
</linearGradient>
<linearGradient id="paint1_linear_2302_7573" x1="11" y1="31.0001" x2="31.0001" y2="11.0001" gradientUnits="userSpaceOnUse">
<stop stop-color="#F34078"/>
<stop offset="1" stop-color="#FB884D"/>
</linearGradient>
</defs>
</svg>
