<svg width="44" height="44" viewBox="0 0 44 44" fill="none" xmlns="http://www.w3.org/2000/svg">
<rect width="44" height="44" rx="22" fill="url(#paint0_linear_2362_4592)" fill-opacity="0.2"/>
<path fill-rule="evenodd" clip-rule="evenodd" d="M12 12H16V16H12V12ZM12 20H16V24H12V20ZM16 24.0001H12V28H16V24.0001ZM20 28.0001H24V32.0001H20V28.0001ZM24 15.9999H20V19.9998H24V15.9999ZM24 16H28V20H24V16ZM24 28.0001V31.9995H28V28.0001V27.9995V24.0001H24V27.9995V28.0001ZM16 16H20V20H16V16ZM20 31.9995V28.0001V27.9995V24.0001H16V27.9995V28.0001V31.9995H20ZM20 20H24V24H20V20ZM28 12H32V16H28V12ZM32 20H28V24H32V20ZM32 24.0001H28V28.0001H32V24.0001Z" fill="white"/>
<rect x="0.5" y="0.5" width="43" height="43" rx="21.5" stroke="white" stroke-opacity="0.2"/>
<defs>
<linearGradient id="paint0_linear_2362_4592" x1="2.6226e-06" y1="44" x2="44" y2="2.6226e-06" gradientUnits="userSpaceOnUse">
<stop stop-color="#F34078"/>
<stop offset="1" stop-color="#FB884D"/>
</linearGradient>
</defs>
</svg>
